# xmcd
#
# Track frame offsets:
#	150
#	14148
#	31853
#	50867
#	64271
#	84164
#	100522
#	114537
#	130398
#	148569
#	165972
#	186664
#	204714
#
# Disc length: 3273 seconds
#
# Revision: 1
# Processed by: cddbd v1.5.2PL0 Copyright (c) Steve Scherf et al.
# Submitted via: audiograbber 1.83.01
#
DISCID=b80cc70d
DTITLE=Separate - Ein guter Tag zum Sterben
DYEAR=2007
DGENRE=
TTITLE0=Er hats verdient (Intro) (feat. Jenga)
TTITLE1=One Love
TTITLE2=Ganz normaler Junge
TTITLE3=12/10er
TTITLE4=Meskalin
TTITLE5=2 Perspektiven (feat. Samy Deluxe)
TTITLE6=Willkommen im Club
TTITLE7=Ich fühle nichts
TTITLE8=Nie wieder (feat. CJ Taylor)
TTITLE9=Ich steh wieder auf (feat. Moses Pelham and Sebastian Hämer)
TTITLE10=Keine Freunde
TTITLE11=Wunderschöner Tag (feat. Emory)
TTITLE12=Mama liebt mich
EXTD=
EXTT0=
EXTT1=
EXTT2=
EXTT3=
EXTT4=
EXTT5=
EXTT6=
EXTT7=
EXTT8=
EXTT9=
EXTT10=
EXTT11=
EXTT12=
PLAYORDER=
